<?xml version="1.0" standalone="no"?>
<!DOCTYPE svg PUBLIC "-//W3C//DTD SVG 20010904//EN"
 "http://www.w3.org/TR/2001/REC-SVG-20010904/DTD/svg10.dtd">
<svg version="1.0" xmlns="http://www.w3.org/2000/svg"
 width="505.000000pt" height="436.000000pt" viewBox="0 0 505.000000 436.000000"
 preserveAspectRatio="xMidYMid meet">

<g transform="translate(0.000000,436.000000) scale(0.100000,-0.100000)"
fill="#000000" stroke="none">
<path d="M1853 4100 c-47 -11 -119 -56 -143 -89 -52 -73 -50 -57 -50 -711 l-1
-610 -540 0 c-589 0 -580 1 -642 -58 -16 -15 -39 -45 -50 -67 -22 -40 -22 -44
-25 -773 -2 -477 1 -753 8 -790 13 -74 52 -129 115 -161 l49 -26 468 -3 c259
-2 468 -7 468 -12 0 -9 -37 -171 -46 -202 -5 -16 -18 -18 -99 -18 -75 0 -97
-3 -116 -18 -33 -27 -30 -78 5 -109 l28 -23 560 2 560 3 19 24 c25 30 24 62
-1 94 -20 25 -27 26 -118 29 l-97 3 -21 112 -21 112 466 3 c459 3 467 3 508
25 51 27 96 82 112 132 7 25 11 140 11 329 l0 291 633 3 632 3 54 30 c58 32
102 83 123 143 19 54 19 2110 0 2164 -22 61 -68 116 -124 145 l-53 28 -1320 2
c-726 0 -1334 -2 -1352 -7z m2658 -156 c54 -27 59 -56 59 -339 l0 -255 -1385
0 -1385 0 0 254 c0 278 5 307 54 337 30 18 71 19 1329 19 1159 0 1301 -2 1328
-16z m59 -1424 c0 -746 1 -733 -59 -764 -26 -14 -106 -16 -641 -16 l-610 0 0
325 0 325 549 0 550 0 20 26 c12 15 21 34 21 44 0 10 -9 29 -21 44 l-20 26
-552 0 -552 1 -30 51 c-23 40 -42 59 -84 80 l-53 28 -644 0 -644 0 0 255 0
255 1385 0 1385 0 0 -680z m-1480 0 c20 -20 20 -33 20 -585 l0 -565 -1280 0
-1280 0 0 559 c0 550 0 559 21 585 l20 26 1240 0 c1226 0 1239 0 1259 -20z
m20 -1409 c0 -107 -1 -110 -26 -130 l-27 -21 -1233 2 c-1168 3 -1234 4 -1251
21 -15 14 -19 38 -21 127 l-4 110 1281 0 1281 0 0 -109z m-1097 -313 c10 -29
40 -208 35 -213 -3 -3 -102 -4 -220 -3 l-215 3 26 112 26 113 171 0 c128 0
173 -3 177 -12z"/>
<path d="M2064 3841 c-75 -34 -134 -126 -134 -211 0 -125 105 -230 231 -230
132 1 229 99 229 233 0 53 -5 71 -32 117 -60 98 -189 139 -294 91z m172 -173
c30 -58 -8 -118 -75 -118 -97 0 -110 143 -16 162 34 7 75 -13 91 -44z"/>
<path d="M2599 3832 c-77 -40 -119 -111 -119 -199 0 -250 331 -325 436 -99 40
86 28 175 -35 247 -70 83 -182 103 -282 51z m171 -150 c43 -53 9 -132 -56
-132 -47 0 -69 13 -84 50 -35 86 83 156 140 82z"/>
<path d="M3126 3678 c-22 -31 -20 -74 4 -98 20 -20 33 -20 670 -20 637 0 650
0 670 20 11 11 20 33 20 50 0 17 -9 39 -20 50 -20 20 -33 20 -674 20 l-655 0
-15 -22z"/>
<path d="M1960 2980 c-11 -11 -20 -33 -20 -50 0 -17 9 -39 20 -50 20 -20 33
-20 1209 -20 l1190 0 20 26 c26 34 26 54 0 88 l-20 26 -1190 0 c-1176 0 -1189
0 -1209 -20z"/>
<path d="M4016 2237 c-22 -22 -126 -308 -126 -348 0 -23 42 -69 64 -69 39 0
66 25 87 79 58 153 98 286 93 308 -13 52 -79 69 -118 30z"/>
<path d="M3677 2158 c-38 -40 -72 -82 -76 -93 -14 -34 2 -62 78 -139 79 -82
109 -93 149 -58 41 33 38 63 -12 124 l-44 55 40 41 c30 30 41 49 41 71 0 43
-28 71 -72 71 -31 0 -44 -9 -104 -72z"/>
<path d="M4190 2210 c-32 -32 -25 -71 21 -124 l41 -46 -41 -45 c-48 -52 -53
-90 -18 -123 45 -42 76 -31 161 58 102 107 102 116 -1 221 -65 67 -81 79 -110
79 -20 0 -41 -8 -53 -20z"/>
<path d="M1897 2303 c-8 -10 -70 -177 -137 -371 -111 -320 -121 -356 -110
-382 17 -41 59 -56 99 -36 17 9 31 18 31 20 0 1 54 159 120 350 66 191 120
358 120 371 0 55 -86 88 -123 48z"/>
<path d="M1118 2108 c-153 -159 -172 -190 -145 -231 8 -12 78 -87 154 -166
122 -127 142 -144 171 -144 43 0 72 28 72 70 0 30 -14 49 -116 155 l-116 120
44 47 c24 25 76 80 116 122 58 62 72 83 72 108 0 41 -31 71 -72 71 -29 0 -50
-17 -180 -152z"/>
<path d="M2311 2234 c-39 -50 -25 -76 108 -209 56 -55 101 -103 101 -108 0 -5
-48 -59 -106 -120 -58 -62 -111 -122 -116 -134 -17 -34 -1 -72 36 -89 47 -23
60 -14 225 159 123 129 141 152 141 181 0 28 -19 52 -151 189 -136 141 -154
157 -184 157 -24 0 -39 -7 -54 -26z"/>
<path d="M2274 1138 c-22 -10 -44 -47 -44 -74 0 -8 11 -26 25 -39 21 -22 33
-25 90 -25 57 0 69 3 90 25 14 13 25 31 25 39 0 28 -22 64 -47 75 -30 14 -111
13 -139 -1z"/>
<path d="M2560 1143 c-51 -19 -68 -85 -30 -123 16 -16 33 -20 89 -20 63 0 71
2 90 26 34 43 26 86 -20 109 -27 15 -99 19 -129 8z"/>
<path d="M2823 1140 c-46 -19 -57 -83 -20 -118 19 -18 35 -22 88 -22 56 0 69
4 87 23 27 28 28 67 3 98 -14 18 -30 23 -77 26 -32 1 -69 -1 -81 -7z"/>
</g>
</svg>
