<?xml version="1.0" standalone="no"?>
<!DOCTYPE svg PUBLIC "-//W3C//DTD SVG 20010904//EN"
 "http://www.w3.org/TR/2001/REC-SVG-20010904/DTD/svg10.dtd">
<svg version="1.0" xmlns="http://www.w3.org/2000/svg"
 width="456.000000pt" height="538.000000pt" viewBox="0 0 456.000000 538.000000"
 preserveAspectRatio="xMidYMid meet">

<g transform="translate(0.000000,538.000000) scale(0.100000,-0.100000)"
fill="#000000" stroke="none">
<path d="M2035 5124 c-527 -42 -879 -172 -970 -357 l-25 -53 2 -984 c3 -940 4
-987 22 -1019 87 -160 394 -287 813 -336 70 -8 157 -15 193 -15 36 0 75 -3 88
-6 l22 -6 0 -239 0 -239 -850 -2 c-800 -3 -850 -4 -867 -21 -16 -16 -19 -46
-23 -283 l-5 -265 -50 -17 c-250 -85 -367 -351 -257 -587 38 -81 116 -161 194
-199 346 -169 721 171 586 531 -42 114 -150 217 -261 252 l-62 19 -3 211 -2
211 800 0 800 0 -2 -211 -3 -211 -55 -17 c-72 -23 -124 -57 -182 -118 -59 -63
-86 -117 -104 -206 -29 -137 14 -276 115 -378 170 -169 432 -170 600 -2 103
104 146 242 117 380 -18 89 -45 143 -104 206 -58 61 -110 95 -182 118 l-55 17
-3 211 -2 211 797 -2 798 -3 0 -209 0 -208 -58 -18 c-150 -47 -264 -183 -289
-347 -27 -176 75 -363 240 -440 307 -143 647 110 601 447 -22 154 -133 288
-285 339 l-59 20 -5 265 c-4 237 -7 267 -23 283 -17 17 -67 18 -867 21 l-850
2 0 239 0 239 23 6 c12 3 51 6 87 6 88 0 299 25 422 50 293 60 516 175 584
301 18 32 19 79 22 1019 l2 984 -25 53 c-50 100 -170 182 -366 247 -116 39
-305 79 -449 96 -99 11 -498 21 -585 14z m630 -168 c307 -46 526 -125 610
-217 71 -78 34 -140 -129 -219 -338 -164 -995 -207 -1494 -99 -266 58 -462
163 -462 249 0 45 59 103 152 150 150 75 320 115 648 154 85 10 579 -3 675
-18z m-1175 -645 c227 -65 460 -93 765 -93 412 0 759 64 981 181 l74 38 0
-208 0 -208 -32 -36 c-76 -87 -351 -183 -638 -221 -200 -27 -612 -25 -807 4
-295 44 -535 130 -613 218 l-30 35 0 207 0 208 98 -48 c53 -26 144 -61 202
-77z m0 -620 c227 -65 461 -94 765 -93 411 0 759 64 981 181 l74 38 0 -207 c0
-237 1 -234 -94 -295 -408 -257 -1524 -257 -1932 0 -95 61 -94 58 -94 294 l0
207 98 -48 c53 -26 144 -61 202 -77z m-68 -600 c251 -88 651 -132 1006 -111
362 22 622 80 817 183 l65 35 0 -208 c0 -197 -1 -209 -22 -235 -74 -95 -335
-188 -645 -231 -180 -25 -606 -25 -786 0 -310 43 -571 136 -645 231 -21 26
-22 38 -22 235 l0 207 73 -37 c39 -21 111 -52 159 -69z m-785 -1967 c56 -27
91 -63 126 -128 31 -58 31 -184 0 -241 -29 -55 -99 -118 -156 -140 -61 -23
-165 -17 -223 13 -85 43 -154 154 -154 247 0 88 54 186 129 234 88 57 182 62
278 15z m1721 11 c174 -73 225 -298 100 -440 -113 -128 -303 -129 -416 0 -86
98 -95 224 -23 337 69 108 217 153 339 103z m1748 -4 c166 -74 214 -298 93
-435 -55 -62 -108 -88 -192 -94 -84 -6 -143 15 -205 72 -56 51 -83 105 -89
175 -20 215 195 369 393 282z"/>
<path d="M2112 4027 c-27 -29 -28 -67 -3 -98 18 -23 25 -24 141 -24 116 0 123
1 141 24 27 34 24 75 -7 100 -23 18 -41 21 -139 21 -104 0 -113 -2 -133 -23z"/>
<path d="M2116 3409 c-31 -25 -34 -66 -7 -100 18 -23 25 -24 141 -24 116 0
123 1 141 24 27 34 24 75 -7 100 -23 18 -41 21 -134 21 -93 0 -111 -3 -134
-21z"/>
<path d="M2116 2789 c-31 -25 -34 -66 -7 -100 18 -23 25 -24 141 -24 116 0
123 1 141 24 27 34 24 75 -7 100 -23 18 -41 21 -134 21 -93 0 -111 -3 -134
-21z"/>
</g>
</svg>
