<?xml version="1.0" standalone="no"?>
<!DOCTYPE svg PUBLIC "-//W3C//DTD SVG 20010904//EN"
 "http://www.w3.org/TR/2001/REC-SVG-20010904/DTD/svg10.dtd">
<svg version="1.0" xmlns="http://www.w3.org/2000/svg"
 width="532.000000pt" height="530.000000pt" viewBox="0 0 532.000000 530.000000"
 preserveAspectRatio="xMidYMid meet">

<g transform="translate(0.000000,530.000000) scale(0.100000,-0.100000)"
fill="#000000" stroke="none">
<path d="M1169 4851 c-56 -11 -101 -43 -136 -95 l-33 -48 0 -233 c0 -128 -3
-246 -6 -263 l-6 -30 -227 -4 c-193 -3 -232 -6 -271 -23 -107 -44 -179 -117
-222 -223 l-23 -57 0 -1240 0 -1240 22 -53 c42 -102 123 -183 225 -225 53 -22
58 -22 840 -25 l787 -3 21 -55 c48 -130 48 -278 -1 -408 l-20 -56 -118 0
c-133 0 -155 -8 -149 -55 6 -55 -4 -55 708 -55 712 0 702 0 708 55 6 47 -16
55 -149 55 l-118 0 -20 56 c-49 130 -49 278 -1 408 l21 55 787 3 c782 3 787 3
840 25 102 42 183 123 225 225 l22 53 0 1240 0 1240 -23 57 c-43 106 -115 179
-222 223 -39 17 -78 20 -272 23 l-227 4 -3 256 c-3 228 -5 261 -22 292 -26 49
-55 79 -101 103 l-40 22 -1380 1 c-759 1 -1396 -1 -1416 -5z m2818 -134 l28
-27 3 -225 3 -225 -1460 0 -1461 0 0 210 c0 169 3 217 15 240 33 63 -65 60
1457 57 l1388 -2 27 -28z m33 -847 l0 -270 -822 2 -821 3 -14 59 c-54 237
-288 412 -528 392 -224 -18 -409 -177 -458 -393 l-14 -58 -131 -3 -132 -3 0
271 0 270 1460 0 1460 0 0 -270z m-3020 -821 c0 -993 1 -1021 20 -1059 24 -47
79 -94 129 -109 55 -16 2767 -16 2822 0 50 16 105 61 132 112 l22 42 3 1018 2
1017 218 0 c215 0 219 0 270 -26 29 -14 68 -44 87 -67 68 -79 65 -23 65 -1239
l0 -1098 -2210 0 -2210 0 0 1098 c0 1216 -3 1160 65 1239 19 23 58 53 87 67
51 26 55 26 275 26 l222 0 1 -1021z m1032 868 c218 -99 303 -367 181 -575
l-25 -43 -49 46 c-26 25 -60 50 -74 57 -27 12 -31 23 -14 34 23 14 49 90 49
145 0 147 -131 255 -277 228 -105 -20 -183 -115 -183 -224 0 -59 25 -135 49
-149 17 -11 13 -22 -14 -34 -14 -7 -48 -32 -75 -58 l-48 -45 -25 43 c-66 113
-76 259 -25 370 46 101 146 190 251 224 68 22 209 13 279 -19z m-94 -227 c70
-43 78 -136 17 -197 -29 -29 -39 -33 -85 -33 -46 0 -56 4 -85 33 -43 43 -52
79 -34 131 27 77 117 109 187 66z m-562 -252 c28 -124 110 -240 218 -310 208
-134 492 -96 654 87 52 60 110 175 118 239 l7 46 823 0 824 0 0 -726 0 -726
-34 -34 -34 -34 -1391 0 -1391 0 -32 29 -33 29 -3 731 -2 732 132 -3 131 -3
13 -57z m622 -122 c26 -13 60 -38 77 -56 l30 -31 -25 -20 c-38 -29 -145 -59
-210 -59 -65 0 -172 30 -210 59 l-25 20 30 31 c32 34 91 68 140 81 49 13 141
1 193 -25z m2772 -1833 c0 -113 -52 -201 -148 -250 l-64 -33 -1998 0 -1998 0
-64 33 c-96 49 -148 137 -148 250 l0 47 2210 0 2210 0 0 -47z m-1903 -455
c-30 -91 -30 -306 0 -395 l21 -63 -328 0 -328 0 21 63 c17 51 21 86 21 197 0
111 -4 146 -21 198 l-21 62 328 0 328 0 -21 -62z"/>
<path d="M1375 4646 c-16 -8 -43 -28 -60 -45 -24 -26 -30 -41 -33 -94 -2 -49
1 -69 17 -95 80 -126 282 -79 298 69 12 118 -115 212 -222 165z m103 -108 c29
-29 1 -98 -40 -98 -24 0 -58 35 -58 59 0 42 68 69 98 39z"/>
<path d="M1800 4638 c-149 -77 -95 -298 74 -298 94 0 156 62 156 156 0 123
-121 198 -230 142z m114 -104 c22 -21 20 -50 -4 -74 -24 -24 -47 -25 -72 -3
-20 18 -24 63 -6 81 17 17 64 15 82 -4z"/>
<path d="M2250 4649 c-119 -48 -135 -215 -29 -286 33 -22 47 -25 99 -21 52 4
65 9 95 38 19 18 40 49 46 68 42 126 -88 250 -211 201z m98 -111 c30 -30 3
-98 -39 -98 -23 0 -59 34 -59 57 0 42 68 71 98 41z"/>
<path d="M3671 4627 c-6 -8 -14 -28 -17 -45 -5 -27 -11 -32 -35 -32 -20 0 -34
-8 -45 -25 -24 -37 -6 -72 40 -80 29 -6 35 -12 40 -41 6 -31 30 -54 55 -54 20
0 51 40 51 64 0 18 7 25 32 30 41 8 58 23 58 51 0 29 -30 55 -63 55 -23 0 -27
4 -27 28 0 49 -61 82 -89 49z"/>
<path d="M2655 4534 c-23 -23 -15 -66 15 -81 19 -9 109 -13 350 -13 352 0 372
3 378 51 7 59 4 59 -378 59 -308 0 -350 -2 -365 -16z"/>
<path d="M2622 3208 c-15 -15 -15 -43 -2 -69 10 -18 27 -19 548 -19 405 0 541
3 550 12 7 7 12 24 12 38 0 14 -5 31 -12 38 -17 17 -1079 17 -1096 0z"/>
<path d="M2615 2871 c-22 -10 -54 -34 -72 -52 -57 -61 -63 -88 -63 -296 0
-104 5 -205 11 -227 14 -51 91 -128 145 -144 57 -17 1009 -17 1065 0 52 15
117 73 140 122 16 35 19 68 19 239 0 219 -5 245 -63 306 -69 72 -52 71 -627
71 -481 0 -518 -2 -555 -19z m1082 -107 c55 -40 63 -73 63 -249 0 -176 -8
-209 -63 -249 -28 -21 -39 -21 -526 -21 -458 0 -499 1 -524 18 -55 36 -62 59
-65 215 -2 79 -1 164 3 188 8 53 45 100 88 113 18 6 238 9 514 8 470 -2 482
-3 510 -23z"/>
<path d="M1272 2838 c-7 -7 -12 -24 -12 -38 0 -14 5 -31 12 -38 9 -9 133 -12
495 -12 l483 0 16 25 c15 23 15 27 0 50 l-16 25 -483 0 c-362 0 -486 -3 -495
-12z"/>
<path d="M1277 2552 c-23 -26 -21 -58 5 -76 20 -14 83 -16 488 -16 507 0 503
0 503 55 0 55 4 55 -508 55 -444 0 -473 -1 -488 -18z"/>
<path d="M1272 2268 c-17 -17 -15 -54 4 -72 14 -14 72 -16 494 -16 l480 0 16
25 c15 23 15 27 0 50 l-16 25 -483 0 c-362 0 -486 -3 -495 -12z"/>
</g>
</svg>
