<?xml version="1.0" standalone="no"?>
<!DOCTYPE svg PUBLIC "-//W3C//DTD SVG 20010904//EN"
 "http://www.w3.org/TR/2001/REC-SVG-20010904/DTD/svg10.dtd">
<svg version="1.0" xmlns="http://www.w3.org/2000/svg"
 width="516.000000pt" height="518.000000pt" viewBox="0 0 516.000000 518.000000"
 preserveAspectRatio="xMidYMid meet">

<g transform="translate(0.000000,518.000000) scale(0.100000,-0.100000)"
fill="#000000" stroke="none">
<path d="M428 4951 c-107 -42 -191 -122 -230 -219 l-23 -57 -3 -1329 c-3
-1449 -5 -1392 53 -1491 35 -59 105 -122 173 -153 l57 -27 678 -3 677 -3 0
-49 c0 -131 -48 -381 -102 -530 l-23 -65 -175 -5 c-169 -5 -177 -6 -222 -33
-83 -48 -128 -128 -128 -224 0 -103 56 -190 150 -232 44 -20 60 -21 1140 -21
1080 0 1096 1 1140 21 94 42 150 129 150 232 0 96 -45 176 -128 224 -45 27
-53 28 -222 33 l-175 5 -22 55 c-55 139 -96 329 -109 502 l-7 87 684 3 684 3
57 27 c68 31 138 94 173 153 58 99 56 39 53 1526 l-3 1364 -24 53 c-14 31 -43
70 -72 96 -92 83 101 76 -2148 76 -1921 -1 -2008 -2 -2053 -19z m4093 -134
c19 -12 44 -42 56 -67 l23 -44 0 -1138 0 -1138 -2150 0 -2150 0 2 1118 3 1117
27 45 c32 55 62 84 114 110 38 19 71 19 2040 20 l2001 0 34 -23z m79 -2660 c0
-162 -11 -209 -62 -271 -17 -21 -54 -49 -82 -62 l-51 -24 -1956 0 -1955 0 -52
26 c-112 56 -142 125 -142 331 l0 143 2150 0 2150 0 0 -143z m-1642 -614 c15
-153 42 -292 82 -418 17 -51 30 -95 30 -99 0 -3 -280 -6 -621 -6 l-621 0 5 23
c3 12 17 63 31 112 34 115 63 282 72 413 l7 102 501 0 502 0 12 -127z m592
-669 c56 -34 77 -112 45 -174 -33 -63 31 -60 -1145 -60 -1176 0 -1112 -3
-1145 60 -31 61 -12 139 44 173 24 15 125 16 1099 17 977 0 1076 -1 1102 -16z"/>
<path d="M3653 4680 c-29 -17 -53 -65 -53 -106 0 -37 -85 -59 -110 -30 -20 25
-73 38 -106 26 -40 -15 -142 -118 -154 -156 -11 -34 5 -93 29 -108 18 -11 13
-71 -7 -89 -10 -10 -23 -17 -28 -17 -5 0 -26 -5 -47 -11 -58 -16 -77 -55 -77
-157 0 -117 20 -148 105 -167 17 -4 38 -14 48 -22 19 -18 23 -78 6 -89 -6 -3
-18 -22 -26 -41 -21 -51 -4 -90 72 -162 75 -72 118 -82 178 -39 56 40 109 18
122 -50 15 -83 60 -107 190 -100 72 3 79 6 106 36 16 18 29 41 29 52 0 34 22
69 49 78 28 10 42 6 83 -21 30 -21 85 -25 114 -9 11 6 45 37 77 70 51 54 57
65 57 102 0 25 -8 53 -19 69 -23 33 -27 49 -18 82 7 27 43 49 81 49 12 0 35
14 51 30 26 27 30 40 33 100 2 39 1 85 -2 104 -9 45 -48 82 -94 90 -70 11 -94
61 -57 117 16 26 25 52 25 80 0 36 -7 48 -61 104 -72 76 -111 93 -162 72 -19
-8 -38 -20 -41 -26 -4 -6 -22 -11 -41 -11 -39 0 -75 37 -75 79 0 29 -24 63
-57 80 -12 6 -59 11 -105 11 -65 0 -90 -4 -115 -20z m160 -137 c22 -111 174
-178 279 -124 l37 18 22 -23 c22 -23 22 -24 5 -63 -51 -111 15 -256 127 -278
24 -5 27 -10 27 -43 0 -33 -3 -38 -27 -43 -112 -22 -178 -167 -127 -279 17
-38 17 -39 -3 -60 -21 -20 -23 -20 -62 -4 -60 23 -137 21 -186 -7 -43 -24 -83
-77 -92 -119 -5 -25 -10 -28 -43 -28 -33 0 -39 4 -45 28 -11 48 -52 99 -97
121 -57 27 -141 28 -183 2 -30 -18 -30 -18 -56 6 l-26 24 18 37 c26 49 24 124
-2 180 -23 46 -95 102 -131 102 -14 0 -18 8 -18 39 0 34 3 40 28 46 113 27
178 171 123 277 l-18 36 24 25 25 24 36 -18 c106 -55 250 10 277 124 6 23 12
27 45 27 33 0 38 -3 43 -27z"/>
<path d="M3653 4370 c-81 -27 -170 -107 -210 -188 -23 -49 -27 -70 -28 -147 0
-78 4 -98 28 -151 36 -77 104 -145 182 -181 51 -23 73 -28 145 -28 71 0 94 5
142 27 79 37 142 98 181 177 29 59 32 75 32 151 0 71 -5 95 -27 142 -80 172
-268 256 -445 198z m188 -121 c123 -37 192 -190 138 -309 -27 -60 -54 -88
-114 -116 -91 -43 -183 -27 -255 46 -94 94 -95 226 -2 319 66 66 145 86 233
60z"/>
<path d="M2261 4565 c-197 -43 -357 -132 -492 -272 -105 -109 -209 -284 -209
-352 0 -53 69 -83 101 -43 8 9 34 56 58 104 99 201 278 350 501 420 65 20 95
23 230 23 171 0 237 -14 368 -78 l63 -31 -33 -10 c-57 -19 -70 -81 -22 -112
19 -13 39 -14 133 -5 61 6 120 15 131 21 29 16 33 46 21 166 -12 117 -25 144
-71 144 -44 0 -65 -23 -64 -69 1 -23 -1 -40 -5 -39 -3 2 -42 22 -86 44 -90 46
-181 78 -269 93 -82 15 -278 12 -355 -4z"/>
<path d="M984 3876 c-24 -24 -34 -43 -34 -65 0 -38 -31 -71 -66 -71 -14 0 -42
11 -62 25 -64 43 -105 31 -189 -58 -71 -75 -80 -125 -32 -185 40 -52 14 -104
-59 -115 -28 -5 -48 -16 -66 -38 -24 -28 -26 -38 -26 -131 0 -97 1 -100 29
-129 20 -20 40 -29 61 -29 36 0 80 -38 80 -69 0 -11 -11 -37 -25 -57 -15 -22
-25 -51 -25 -72 0 -31 10 -45 73 -109 67 -66 77 -73 113 -73 27 0 51 8 74 25
19 14 41 25 51 25 29 0 69 -39 69 -68 0 -72 59 -112 165 -112 106 0 165 40
165 112 0 29 40 68 69 68 10 0 32 -11 51 -25 23 -17 47 -25 74 -25 36 0 46 7
113 73 84 85 92 114 48 179 -14 20 -25 46 -25 58 0 27 43 70 70 70 29 0 77 27
90 49 5 11 10 62 10 115 0 87 -2 97 -26 125 -18 22 -38 33 -66 38 -73 11 -99
63 -59 115 48 60 39 110 -32 185 -84 89 -125 101 -189 58 -20 -14 -48 -25 -62
-25 -35 0 -66 33 -66 71 0 22 -10 41 -34 65 -34 34 -34 34 -131 34 -97 0 -97
0 -131 -34z m181 -139 c36 -105 170 -158 270 -107 l39 20 24 -23 23 -23 -22
-49 c-44 -99 -2 -207 98 -255 50 -24 53 -27 53 -62 0 -29 -4 -38 -17 -38 -9 0
-35 -11 -59 -25 -60 -35 -99 -115 -91 -187 4 -28 14 -62 23 -75 15 -24 15 -27
-9 -50 -24 -25 -25 -25 -58 -7 -50 27 -134 24 -186 -5 -48 -27 -75 -60 -92
-113 -11 -33 -16 -38 -44 -38 -29 0 -35 6 -59 58 -51 109 -167 149 -271 95
-28 -14 -31 -14 -54 9 -23 23 -23 25 -7 57 25 51 29 106 10 155 -20 52 -84
114 -126 123 -27 5 -30 10 -30 42 0 34 4 38 53 61 100 48 142 156 98 255 l-22
49 23 23 24 23 39 -21 c58 -30 141 -23 196 17 38 27 70 71 83 117 5 14 14 18
42 15 32 -3 38 -7 49 -41z"/>
<path d="M1008 3587 c-108 -41 -193 -121 -229 -216 -29 -79 -24 -203 12 -281
67 -143 236 -231 385 -200 85 18 144 51 202 114 71 79 95 146 90 256 -6 137
-69 235 -190 300 -55 30 -74 34 -148 37 -55 2 -98 -2 -122 -10z m207 -138 c80
-38 126 -113 126 -204 0 -132 -96 -229 -226 -229 -128 0 -227 97 -227 223 -1
93 45 171 125 210 57 28 142 28 202 0z"/>
<path d="M3247 3379 c-9 -6 -36 -47 -58 -92 -122 -245 -327 -403 -587 -453
-178 -34 -400 0 -541 83 l-46 27 35 7 c61 13 78 62 36 104 -23 23 -30 24 -88
19 -181 -18 -180 -18 -199 -44 -18 -23 -18 -34 -8 -140 9 -103 13 -117 35
-137 14 -13 32 -23 40 -23 26 0 64 47 64 80 l0 31 63 -35 c466 -257 1063 -72
1301 405 51 101 56 129 26 159 -22 22 -46 25 -73 9z"/>
<path d="M2230 2090 c-27 -27 -25 -56 5 -85 24 -25 26 -25 215 -25 189 0 191
0 215 25 30 29 32 58 5 85 -19 19 -33 20 -220 20 -187 0 -201 -1 -220 -20z"/>
</g>
</svg>
